<?xml version="1.0"?>
<svg xmlns="http://www.w3.org/2000/svg" height="512px" viewBox="0 -56 496 496" width="512px"><g><g fill="#231f20"><path d="m248 120c-22.089844 0-40 17.910156-40 40s17.910156 40 40 40 40-17.910156 40-40c-.027344-22.082031-17.917969-39.972656-40-40zm0 64c-13.253906 0-24-10.746094-24-24s10.746094-24 24-24 24 10.746094 24 24-10.746094 24-24 24zm0 0" data-original="#000000" class="active-path" data-old_color="#000000" fill="#000000"/><path d="m104 120c-22.089844 0-40 17.910156-40 40s17.910156 40 40 40 40-17.910156 40-40c-.027344-22.082031-17.917969-39.972656-40-40zm0 64c-13.253906 0-24-10.746094-24-24s10.746094-24 24-24 24 10.746094 24 24-10.746094 24-24 24zm0 0" data-original="#000000" class="active-path" data-old_color="#000000" fill="#000000"/><path d="m392 120c-22.089844 0-40 17.910156-40 40s17.910156 40 40 40 40-17.910156 40-40c-.027344-22.082031-17.917969-39.972656-40-40zm0 64c-13.253906 0-24-10.746094-24-24s10.746094-24 24-24 24 10.746094 24 24-10.746094 24-24 24zm0 0" data-original="#000000" class="active-path" data-old_color="#000000" fill="#000000"/><path d="m408 0h-320c-48.578125.0585938-87.9414062 39.421875-88 88v144c.0585938 48.578125 39.421875 87.941406 88 88v56c0 3.234375 1.949219 6.152344 4.9375 7.390625s6.429688.550781 8.71875-1.734375l61.65625-61.65625h244.6875c48.578125-.058594 87.941406-39.421875 88-88v-144c-.058594-48.578125-39.421875-87.9414062-88-88zm72 232c-.042969 39.746094-32.253906 71.957031-72 72h-248c-2.121094 0-4.15625.84375-5.65625 2.34375l-50.34375 50.34375v-44.6875c0-4.417969-3.582031-8-8-8h-8c-39.746094-.042969-71.957031-32.253906-72-72v-144c.042969-39.746094 32.253906-71.957031 72-72h320c39.746094.042969 71.957031 32.253906 72 72zm0 0" data-original="#000000" class="active-path" data-old_color="#000000" fill="#000000"/></g></g> </svg>
